# xmcd
#
# Track frame offsets: 
#        150
#        15093
#        28844
#        48360
#        63478
#        82291
#        94260
#        112670
#        129234
#        151905
#        171475
#        191431
#        207120
#
# Disc length: 3032 seconds
#
# Revision: 4
# Processed by: cddbd v1.5.2PL0 Copyright (c) Steve Scherf et al.
# Submitted via: ExactAudioCopy v1.0b1
#
DISCID=a10bd60d
DTITLE=Hana Hegerova - Rymovani o zivote
DYEAR=1997
DGENRE=Chanson
TTITLE0=Tak uz bal
TTITLE1=Ceresne
TTITLE2=Barova lavice
TTITLE3=Mapa lasky
TTITLE4=Lasko ma
TTITLE5=Petr a Lucie
TTITLE6=Denim blue
TTITLE7=Boze muj, ja chci zpet
TTITLE8=Potmesily host
TTITLE9=Mylord
TTITLE10=Ja se vratim
TTITLE11=Krasne sis to vymyslel
TTITLE12=Zila som spravne
EXTD=
EXTT0=
EXTT1=
EXTT2=
EXTT3=
EXTT4=
EXTT5=
EXTT6=
EXTT7=
EXTT8=
EXTT9=
EXTT10=
EXTT11=
EXTT12=
PLAYORDER=
